<?xml version="1.0" encoding="iso-8859-1"?>
<!-- Generator: Adobe Illustrator 18.0.0, SVG Export Plug-In . SVG Version: 6.00 Build 0)  -->
<!DOCTYPE svg PUBLIC "-//W3C//DTD SVG 1.1//EN" "http://www.w3.org/Graphics/SVG/1.1/DTD/svg11.dtd">
<svg xmlns="http://www.w3.org/2000/svg" xmlns:xlink="http://www.w3.org/1999/xlink" version="1.1" id="Capa_1" x="0px" y="0px" viewBox="0 0 301.356 301.356" style="enable-background:new 0 0 301.356 301.356;" xml:space="preserve" width="512px" height="512px">
<g>
	<path d="M162.751,131.804H15c-8.284,0-15,6.716-15,15c0,8.284,6.716,15,15,15h8.648v14.673h130.456v-14.673h8.648   c8.284,0,15-6.716,15-15C177.751,138.52,171.035,131.804,162.751,131.804z" fill="#FFFFFF"/>
	<path d="M23.648,271.398h0.003c0,0-0.003,0.018-0.003,0.027c0,10.731,29.204,19.43,65.228,19.43   c36.024,0,65.228-8.699,65.228-19.43c0-0.009-0.002-0.018-0.002-0.018l0.002-0.009v-59.92H23.648V271.398z" fill="#FFFFFF"/>
	<path d="M300.485,20.481c-2.774-7.806-11.351-11.884-19.158-9.109l-174.422,62C99.1,76.146,95.021,84.723,97.796,92.53   c2.773,7.8,11.344,11.884,19.158,9.109l174.422-62C299.182,36.865,303.26,28.288,300.485,20.481z" fill="#FFFFFF"/>
	<path d="M3.474,32.967l9.287,5.079c0.392,0.214,0.714,0.536,0.928,0.928l5.079,9.287c0.885,1.619,3.211,1.619,4.097,0l5.079-9.287   c0.214-0.392,0.536-0.714,0.928-0.928l9.287-5.079c1.619-0.885,1.619-3.211,0-4.096l-9.287-5.079   c-0.392-0.214-0.714-0.536-0.928-0.928l-5.079-9.287c-0.885-1.619-3.211-1.619-4.097,0l-5.079,9.287   c-0.214,0.392-0.536,0.714-0.928,0.928L3.474,28.87C1.855,29.756,1.855,32.081,3.474,32.967z" fill="#FFFFFF"/>
	<path d="M77.516,48.2l2.076,1.136c0.392,0.214,0.714,0.536,0.928,0.928l1.136,2.076c0.885,1.619,3.211,1.619,4.096,0l1.136-2.076   c0.214-0.392,0.536-0.714,0.928-0.928l2.077-1.136c1.619-0.885,1.619-3.211,0-4.096l-2.077-1.136   c-0.392-0.214-0.714-0.536-0.928-0.928l-1.136-2.077c-0.885-1.619-3.211-1.619-4.096,0l-1.136,2.077   c-0.214,0.392-0.536,0.714-0.928,0.928l-2.076,1.136C75.897,44.99,75.897,47.315,77.516,48.2z" fill="#FFFFFF"/>
	<path d="M35.38,79.438l-6.485,3.547c-1.619,0.886-1.619,3.211,0,4.097l6.485,3.547c0.392,0.214,0.714,0.536,0.928,0.928   l3.547,6.485c0.886,1.619,3.211,1.619,4.097,0l3.547-6.485c0.214-0.392,0.536-0.714,0.928-0.928l6.485-3.547   c1.619-0.886,1.619-3.211,0-4.097l-6.485-3.547c-0.392-0.214-0.714-0.536-0.928-0.928l-3.547-6.485   c-0.886-1.619-3.211-1.619-4.097,0l-3.547,6.485C36.093,78.902,35.771,79.224,35.38,79.438z" fill="#FFFFFF"/>
</g>
<g>
</g>
<g>
</g>
<g>
</g>
<g>
</g>
<g>
</g>
<g>
</g>
<g>
</g>
<g>
</g>
<g>
</g>
<g>
</g>
<g>
</g>
<g>
</g>
<g>
</g>
<g>
</g>
<g>
</g>
</svg>
