<?xml version="1.0" encoding="UTF-8" standalone="no"?>
<!-- Created with Inkscape (http://www.inkscape.org/) -->

<svg
   xmlns:dc="http://purl.org/dc/elements/1.1/"
   xmlns:cc="http://creativecommons.org/ns#"
   xmlns:rdf="http://www.w3.org/1999/02/22-rdf-syntax-ns#"
   xmlns:svg="http://www.w3.org/2000/svg"
   xmlns="http://www.w3.org/2000/svg"
   xmlns:sodipodi="http://sodipodi.sourceforge.net/DTD/sodipodi-0.dtd"
   xmlns:inkscape="http://www.inkscape.org/namespaces/inkscape"
   width="210mm"
   height="297mm"
   viewBox="0 0 744.09448819 1052.3622047"
   id="svg2"
   version="1.1"
   inkscape:version="0.91 r"
   sodipodi:docname="empty-search.svg">
  <defs
     id="defs4" />
  <sodipodi:namedview
     id="base"
     pagecolor="#ffffff"
     bordercolor="#666666"
     borderopacity="1.0"
     inkscape:pageopacity="0.0"
     inkscape:pageshadow="2"
     inkscape:zoom="1"
     inkscape:cx="206.65767"
     inkscape:cy="520"
     inkscape:document-units="px"
     inkscape:current-layer="g3556"
     showgrid="false"
     inkscape:window-width="1366"
     inkscape:window-height="703"
     inkscape:window-x="0"
     inkscape:window-y="0"
     inkscape:window-maximized="1" />
  <metadata
     id="metadata7">
    <rdf:RDF>
      <cc:Work
         rdf:about="">
        <dc:format>image/svg+xml</dc:format>
        <dc:type
           rdf:resource="http://purl.org/dc/dcmitype/StillImage" />
        <dc:title />
      </cc:Work>
    </rdf:RDF>
  </metadata>
  <g
     inkscape:label="Layer 1"
     inkscape:groupmode="layer"
     id="layer1">
    <g
       id="g3512"
       transform="matrix(2.4461729,0,0,1.1427145,192.93031,471.8097)">
      <g
         id="g3466">
        <g
           id="g3556">
          <g
             id="g3573"
             style="fill:#ffffff"
             transform="matrix(3.1170048,0,0,3.1170048,-121.23067,-121.42584)">
            <g
               id="g3444"
               transform="matrix(1,0,0,0.87614054,-1.6352074,13.126638)"
               style="fill:#ffffff">
              <g
                 id="g3446"
                 style="fill:#ffffff">
                <g
                   id="g3448"
                   style="fill:#ffffff">
                  <path
                     id="path3450"
                     d="m 64.785,15.134 c -0.22,0 -0.41,-0.127 -0.422,-0.283 -0.012,-0.156 -0.003,-0.462 0.02,-0.68 0,0 0.219,-2.058 1.305,-3.361 0.978,-1.151 1.521,-1.999 1.521,-2.977 0,-1.108 -0.695,-1.848 -2.063,-1.869 -0.782,0 -1.651,0.261 -2.195,0.674 L 62.573,5.643 c -0.078,-0.206 0.022,-0.447 0.223,-0.536 0,0 1.59,-0.707 2.741,-0.707 2.499,0 3.629,1.543 3.629,3.193 0,1.478 -0.825,2.543 -1.868,3.781 -0.956,1.13 -1.304,2.086 -1.238,3.194 l 0.006,0.166 c 0.008,0.22 -0.165,0.4 -0.385,0.4 l -0.896,0 z"
                     inkscape:connector-curvature="0"
                     style="fill:#ffffff" />
                </g>
                <g
                   id="g3452"
                   style="fill:#ffffff">
                  <path
                     id="path3454"
                     d="m 65.679,15.534 -0.894,0 c -0.432,0 -0.792,-0.286 -0.821,-0.651 -0.014,-0.183 -0.004,-0.514 0.021,-0.754 0.01,-0.089 0.246,-2.194 1.396,-3.574 0.905,-1.066 1.428,-1.852 1.428,-2.721 0,-1.192 -0.908,-1.457 -1.669,-1.469 -0.695,0 -1.48,0.238 -1.948,0.593 L 62.766,7.281 62.198,5.786 C 62.046,5.385 62.241,4.916 62.633,4.742 62.701,4.71 64.314,4 65.537,4 c 2.783,0 4.028,1.805 4.028,3.593 0,1.583 -0.85,2.719 -1.962,4.039 -0.863,1.02 -1.205,1.89 -1.145,2.913 l 0.007,0.174 c 0.007,0.217 -0.07,0.421 -0.22,0.576 -0.149,0.154 -0.35,0.239 -0.566,0.239 z m -0.921,-0.815 0.907,0.015 -0.006,-0.15 c -0.072,-1.238 0.326,-2.278 1.333,-3.468 1.038,-1.233 1.773,-2.208 1.773,-3.523 0,-1.351 -0.848,-2.793 -3.229,-2.793 -1.051,0 -2.564,0.666 -2.579,0.672 l 0.203,0.566 c 0.575,-0.295 1.305,-0.474 1.986,-0.474 1.521,0.024 2.463,0.893 2.463,2.269 0,1.115 -0.592,2.03 -1.616,3.235 -0.994,1.193 -1.21,3.125 -1.212,3.145 -0.016,0.155 -0.026,0.359 -0.023,0.506 z"
                     inkscape:connector-curvature="0"
                     style="fill:#ffffff" />
                </g>
              </g>
              <g
                 id="g3456"
                 style="fill:#ffffff">
                <g
                   id="g3458"
                   style="fill:#ffffff">
                  <path
                     id="path3460"
                     d="m 63.907,18.175 c 0,-0.804 0.543,-1.368 1.304,-1.368 0.76,0 1.282,0.564 1.282,1.368 0,0.761 -0.5,1.348 -1.305,1.348 -0.76,-0.001 -1.281,-0.587 -1.281,-1.348 z"
                     inkscape:connector-curvature="0"
                     style="fill:#ffffff" />
                </g>
                <g
                   id="g3462"
                   style="fill:#ffffff">
                  <path
                     id="path3464"
                     d="m 65.188,19.922 c -0.958,0 -1.681,-0.751 -1.681,-1.748 0,-1.024 0.717,-1.768 1.704,-1.768 0.975,0 1.682,0.744 1.682,1.768 0.001,1.014 -0.716,1.748 -1.705,1.748 z m 0.023,-2.715 c -0.541,0 -0.904,0.389 -0.904,0.968 0,0.558 0.362,0.948 0.881,0.948 0.55,0 0.905,-0.372 0.905,-0.948 10e-4,-0.588 -0.345,-0.968 -0.882,-0.968 z"
                     inkscape:connector-curvature="0"
                     style="fill:#ffffff" />
                </g>
              </g>
            </g>
            <path
               id="path3468"
               d="m 38.475841,56.896868 10.336125,-3.294289 c 1.008662,-0.321543 1.980465,-1.4982 2.259743,-2.737939 l 2.596436,-11.488831 c 0.158068,-0.69916 0.06663,-1.414967 -0.252343,-1.965183 -0.318264,-0.551092 -0.837834,-0.890159 -1.425452,-0.931337 l -1.109316,-0.07272 c -1.071747,0 -2.113015,0.945356 -2.422773,2.198236 l -1.696933,6.859305 c -0.155233,0.62644 -0.765534,1.33699 -1.28156,1.492067 l -7.676604,1.839019 c -1.068203,0.320668 -1.92872,1.634878 -1.9592,2.991144 0,0 -0.09711,4.149402 0.233205,4.569949 0.316137,0.401273 0.754192,0.83321 2.398672,0.540579 z"
               inkscape:connector-curvature="0"
               style="fill:#ffffff" />
            <path
               id="path3470"
               d="m 44.769952,43.589169 c 0.292586,0 0.579887,-0.03066 0.863887,-0.07622 l 1.207987,-5.241073 c 0.394297,-1.712855 1.717866,-3.004286 3.078421,-3.004286 l 1.079198,0.0736 c 0.293245,0.0219 0.567998,0.121783 0.829542,0.255833 0.05944,-0.490639 0.09841,-0.990039 0.09841,-1.502581 0,-5.23494 -3.210513,-9.493859 -7.156783,-9.493859 -3.94627,0 -7.156784,4.258919 -7.156784,9.493859 0,5.23494 3.209853,9.494735 7.156123,9.494735 z"
               inkscape:connector-curvature="0"
               style="fill:#ffffff" />
            <path
               id="path3472"
               d="m 63.548674,13.126638 c -4.733361,0 -8.584714,4.701371 -8.584714,10.479517 0,2.596881 0.782158,4.972098 2.069112,6.804984 -0.06657,0.0587 -0.131548,0.12266 -0.179888,0.206769 l -1.7656,3.065616 c -0.234568,0.408282 -0.126001,0.949736 0.243285,1.20995 0.131548,0.09287 0.278946,0.136678 0.424758,0.136678 0.262304,0 0.518269,-0.143687 0.669628,-0.405653 l 1.681599,-2.921053 c 1.482692,1.486811 3.378255,2.38135 5.44182,2.38135 4.734153,0 8.585506,-4.70137 8.585506,-10.479517 0,-5.778147 -3.851353,-10.478641 -8.585506,-10.478641 z m 0,19.206753 c -3.86007,0 -6.999795,-3.914596 -6.999795,-8.727236 0,-4.81264 3.139725,-8.727236 6.999795,-8.727236 3.86007,0 7.000587,3.914596 7.000587,8.727236 0,4.81264 -3.140517,8.727236 -7.000587,8.727236 z"
               inkscape:connector-curvature="0"
               style="fill:#ffffff" />
            <path
               id="path3474"
               d="M 54.398016,48.372116 C 53.981211,47.636158 53.24921,47.056153 52.502002,46.77754 l -1.137747,5.161344 c -0.358051,1.625241 -1.55386,3.112051 -2.844366,3.534351 l -10.080046,3.294288 c -0.479015,0.09375 -0.824624,0.131422 -1.155027,0.131422 -0.08986,0 -0.17004,-0.0079 -0.252986,-0.01402 l 0,16.720266 0,0.440699 0,25.55352 c 0,2.41552 1.550404,4.3807 3.456095,4.3807 l 0.244,0 c 1.905691,0 3.456095,-1.96518 3.456095,-4.3807 l 0,-22.925974 1.469532,0 0,22.925094 c 0,2.41552 1.550404,4.3807 3.456095,4.3807 l 0.243309,0 c 1.90569,0 3.456094,-1.96518 3.456094,-4.3807 l 0,-25.553516 0,-0.440699 0,-0.105137 0.217043,0 c 1.001577,0 2.171119,-0.866503 2.663267,-1.973068 l 4.798442,-10.797556 c 0.502516,-1.129345 0.428556,-2.838696 -0.167966,-3.89094 l -5.92582,-10.465499 z m 0.728544,14.181211 -2.312818,4.775842 0,-10.872904 2.267889,4.124869 c 0.27787,0.50641 0.299989,1.446508 0.04493,1.972193 z"
               inkscape:connector-curvature="0"
               style="fill:#ffffff" />
          </g>
        </g>
      </g>
      <g
         id="g3476" />
      <g
         id="g3478" />
      <g
         id="g3480" />
      <g
         id="g3482" />
      <g
         id="g3484" />
      <g
         id="g3486" />
      <g
         id="g3488" />
      <g
         id="g3490" />
      <g
         id="g3492" />
      <g
         id="g3494" />
      <g
         id="g3496" />
      <g
         id="g3498" />
      <g
         id="g3500" />
      <g
         id="g3502" />
      <g
         id="g3504" />
    </g>
  </g>
</svg>
